<?xml version="1.0" encoding="utf-8"?>
<!-- Generator: Adobe Illustrator 17.0.0, SVG Export Plug-In . SVG Version: 6.00 Build 0)  -->
<!DOCTYPE svg PUBLIC "-//W3C//DTD SVG 1.1//EN" "http://www.w3.org/Graphics/SVG/1.1/DTD/svg11.dtd">
<svg version="1.1" id="Layer_1" xmlns="http://www.w3.org/2000/svg" xmlns:xlink="http://www.w3.org/1999/xlink" x="0px" y="0px"
	 width="400px" height="400px" viewBox="0 0 400 400" enable-background="new 0 0 400 400" xml:space="preserve">
<g>
	<polygon fill="#FFFFFF" points="103.666,366.716 7.413,200 103.666,33.285 296.173,33.285 392.425,200 296.173,366.716 	"/>
	<g>
		<path d="M105.919,365.399c-26.025-45.077-52.05-90.153-78.075-135.23c-6.059-10.495-12.119-20.99-18.178-31.486
			c0,0.878,0,1.755,0,2.634c26.025-45.077,52.05-90.153,78.075-135.23c6.059-10.495,12.119-20.99,18.178-31.486
			c-0.751,0.431-1.502,0.861-2.253,1.292c52.05,0,104.1,0,156.15,0c12.119,0,24.238,0,36.356,0
			c-0.751-0.431-1.502-0.861-2.253-1.292c26.025,45.077,52.05,90.153,78.075,135.23c6.059,10.495,12.119,20.99,18.178,31.486
			c0-0.878,0-1.755,0-2.634c-26.025,45.077-52.05,90.153-78.075,135.23c-6.059,10.495-12.119,20.99-18.178,31.486
			c0.751-0.431,1.502-0.861,2.253-1.292c-52.05,0-104.1,0-156.15,0c-12.119,0-24.238,0-36.356,0c-3.364,0-3.364,5.217,0,5.217
			c52.05,0,104.1,0,156.15,0c12.119,0,24.238,0,36.356,0c0.915,0,1.794-0.498,2.253-1.292c26.025-45.077,52.05-90.153,78.075-135.23
			c5.204-9.014,10.409-18.028,15.612-27.042c0.85-1.472,1.7-2.945,2.55-4.417c0.992-1.719-0.445-3.455-1.281-4.904
			c-12.244-21.208-24.489-42.416-36.733-63.624c-19.407-33.615-38.816-67.23-58.223-100.846c-0.459-0.795-1.337-1.292-2.253-1.292
			c-52.05,0-104.1,0-156.15,0c-10.409,0-20.817,0-31.226,0c-4.258,0-6.435-0.35-8.68,3.537
			C87.873,55.423,75.628,76.63,63.384,97.839c-15.777,27.326-31.553,54.653-47.331,81.979c-3.552,6.152-7.104,12.306-10.657,18.458
			c-1.834,3.177,3.209,9.01,4.701,11.594c28.71,49.726,57.42,99.454,86.129,149.18c1.729,2.995,3.458,5.989,5.187,8.984
			C103.095,370.944,107.604,368.318,105.919,365.399z"/>
	</g>
</g>
</svg>
